<?xml version="1.0" encoding="UTF-8" standalone="no"?>
<!DOCTYPE svg PUBLIC "-//W3C//DTD SVG 1.1//EN" "http://www.w3.org/Graphics/SVG/1.1/DTD/svg11.dtd">
<svg xmlns="http://www.w3.org/2000/svg" version="1.1" viewBox="0.00 0.00 1386.00 370.00">
<g stroke-width="2.00" fill="none" stroke-linecap="butt">
<path stroke="#80d6da" vector-effect="non-scaling-stroke" d="
  M 143.71 100.29
  A 3.10 3.10 0.0 0 0 139.55 104.45
  L 168.18 161.64
  A 3.10 3.10 0.0 0 0 173.72 161.64
  L 202.40 104.43
  A 3.10 3.10 0.0 0 0 198.20 100.30
  L 172.86 113.52
  A 3.10 3.10 0.0 0 1 170.03 113.54
  L 143.71 100.29"
/>
<path stroke="#80d6da" vector-effect="non-scaling-stroke" d="
  M 144.15 174.00
  A 3.03 3.03 0.0 0 0 147.98 170.17
  L 127.71 109.29
  A 3.03 3.03 0.0 0 0 121.96 109.28
  L 112.53 137.30
  A 3.03 3.03 0.0 0 1 110.58 139.22
  L 83.34 147.99
  A 3.03 3.03 0.0 0 0 83.31 153.75
  L 144.15 174.00"
/>
<path stroke="#80d6da" vector-effect="non-scaling-stroke" d="
  M 219.98 109.28
  A 3.04 3.04 0.0 0 0 214.21 109.28
  L 193.95 170.14
  A 3.04 3.04 0.0 0 0 197.79 173.98
  L 258.59 153.76
  A 3.04 3.04 0.0 0 0 258.57 147.98
  L 231.34 139.22
  A 3.04 3.04 0.0 0 1 229.39 137.29
  L 219.98 109.28"
/>
<path stroke="#9c9fa3" vector-effect="non-scaling-stroke" d="
  M 393.73 222.86
  C 380.89 225.27 369.03 220.02 365.23 206.97
  C 360.84 191.88 366.01 174.88 383.11 171.55
  C 393.76 169.47 404.36 172.86 409.17 183.30
  C 410.95 187.15 416.54 186.07 421.26 185.99
  C 426.04 185.91 426.29 182.51 424.82 178.92
  C 419.03 164.78 407.15 156.66 392.22 154.98
  C 376.82 153.26 361.28 159.97 353.44 173.45
  C 341.37 194.18 346.96 225.14 369.83 236.12
  C 377.18 239.66 387.98 240.70 395.00 239.34
  Q 416.54 235.18 424.85 215.52
  C 426.40 211.84 425.82 208.24 421.00 208.35
  C 418.28 208.41 410.63 207.63 409.30 210.54
  Q 404.60 220.83 393.73 222.86"
/>
<path stroke="#9c9fa3" vector-effect="non-scaling-stroke" d="
  M 452.52 216.00
  L 483.71 216.00
  Q 484.22 216.00 484.42 216.47
  L 492.43 235.33
  A 4.35 4.35 0.0 0 0 496.34 237.98
  C 501.06 238.07 512.43 240.19 508.47 230.85
  Q 492.73 193.73 477.12 156.89
  A 3.49 3.49 0.0 0 0 473.90 154.75
  L 462.42 154.76
  A 3.37 3.36 11.5 0 0 459.32 156.81
  L 427.16 232.66
  A 3.84 3.84 0.0 0 0 430.70 238.00
  L 440.24 238.00
  A 3.93 3.92 -78.6 0 0 443.86 235.59
  L 451.91 216.41
  Q 452.08 216.00 452.52 216.00"
/>
<path stroke="#9c9fa3" vector-effect="non-scaling-stroke" d="
  M 532.93 183.63
  Q 542.52 195.49 551.87 207.55
  C 554.23 210.60 557.20 213.58 560.43 209.43
  Q 570.47 196.54 580.39 183.85
  A 0.26 0.26 0.0 0 1 580.86 184.01
  L 580.85 233.86
  A 4.14 4.14 0.0 0 0 584.99 238.00
  L 593.40 238.00
  A 3.90 3.89 -90.0 0 0 597.29 234.10
  L 597.30 158.65
  A 3.90 3.90 0.0 0 0 593.40 154.75
  L 582.84 154.76
  A 2.84 2.84 0.0 0 0 580.56 155.91
  L 557.18 187.40
  A 0.34 0.34 0.0 0 1 556.63 187.40
  L 533.42 156.72
  A 4.97 4.97 0.0 0 0 529.46 154.75
  L 519.99 154.75
  A 3.99 3.99 0.0 0 0 516.00 158.74
  Q 516.02 196.28 516.20 233.50
  C 516.23 239.76 524.52 238.05 528.36 237.99
  A 4.19 4.19 0.0 0 0 532.50 233.80
  L 532.50 183.78
  Q 532.50 183.10 532.93 183.63"
/>
<path stroke="#9c9fa3" vector-effect="non-scaling-stroke" d="
  M 629.53 211.01
  Q 640.52 210.97 651.50 211.02
  C 689.38 211.19 690.48 155.02 651.24 154.80
  Q 633.61 154.70 616.21 154.77
  A 3.73 3.73 0.0 0 0 612.49 158.50
  L 612.50 233.99
  A 4.01 4.01 0.0 0 0 616.49 238.00
  C 620.67 238.01 629.14 239.81 629.03 233.00
  Q 628.87 222.29 628.98 211.57
  Q 628.98 211.01 629.53 211.01"
/>
<path stroke="#9c9fa3" vector-effect="non-scaling-stroke" d="
  M 743.16 202.50
  C 743.07 216.42 733.13 224.84 719.17 222.35
  C 708.30 220.41 704.15 211.25 704.14 200.75
  Q 704.13 179.84 704.16 159.19
  Q 704.16 154.75 699.72 154.75
  L 691.27 154.75
  A 3.60 3.59 -89.9 0 0 687.68 158.34
  Q 687.67 180.00 687.91 202.25
  Q 688.01 210.79 690.44 217.04
  C 696.86 233.49 714.84 241.75 731.78 238.06
  C 748.74 234.37 759.64 220.01 759.71 202.75
  Q 759.79 180.47 759.74 158.52
  A 3.78 3.78 0.0 0 0 755.96 154.75
  L 746.84 154.75
  A 3.56 3.55 90.0 0 0 743.29 158.31
  Q 743.29 180.66 743.16 202.50"
/>
<path stroke="#9c9fa3" vector-effect="non-scaling-stroke" d="
  M 787.27 180.65
  Q 786.48 174.43 791.65 172.36
  C 798.71 169.53 817.66 168.73 820.10 179.54
  C 820.65 182.00 821.36 183.96 824.00 183.98
  Q 828.50 184.02 832.99 183.78
  Q 837.26 183.54 836.73 179.00
  C 835.41 167.69 827.33 159.21 816.75 156.46
  C 798.25 151.66 768.83 155.80 771.19 182.24
  C 772.30 194.70 785.91 199.83 796.43 202.62
  C 803.31 204.45 815.51 206.49 820.71 210.78
  C 823.46 213.06 822.74 217.21 820.54 219.53
  C 814.83 225.56 800.63 224.12 793.57 221.90
  Q 788.21 220.20 786.15 215.63
  C 784.25 211.38 786.38 208.46 779.54 208.48
  C 776.77 208.49 768.42 207.37 768.58 212.00
  Q 769.05 225.92 780.33 233.54
  C 793.20 242.23 821.73 242.40 832.93 230.43
  C 839.03 223.92 840.63 212.81 836.55 204.85
  C 832.03 196.03 819.80 191.51 810.52 189.52
  C 802.94 187.90 792.10 186.28 787.65 181.45
  Q 787.33 181.11 787.27 180.65"
/>
<path stroke="#9c9fa3" vector-effect="non-scaling-stroke" d="
  M 908.53 194.62
  C 908.90 194.05 909.70 193.34 909.94 192.99
  Q 914.00 187.19 914.24 179.74
  C 914.77 163.21 901.84 154.90 886.74 154.80
  Q 869.36 154.69 852.56 154.77
  A 3.75 3.75 0.0 0 0 848.83 158.52
  L 848.84 233.77
  A 4.19 4.19 0.0 0 0 852.99 237.96
  Q 871.03 238.12 889.50 237.89
  C 903.05 237.72 916.80 231.72 918.08 216.52
  Q 919.20 203.09 908.66 195.33
  Q 908.26 195.04 908.53 194.62"
/>
<path stroke="#9c9fa3" vector-effect="non-scaling-stroke" d="
  M 945.76 209.00
  L 964.97 209.00
  Q 965.38 209.00 965.60 209.35
  L 982.34 236.17
  A 3.87 3.87 0.0 0 0 985.61 238.00
  Q 990.11 238.01 994.83 237.99
  C 1000.35 237.97 1000.83 234.06 998.20 230.07
  Q 990.34 218.15 982.61 206.26
  A 0.60 0.60 0.0 0 1 982.91 205.37
  C 995.81 200.79 999.84 188.38 997.49 175.75
  C 994.86 161.63 982.62 154.91 968.99 154.81
  Q 950.54 154.68 932.72 154.77
  A 3.96 3.95 -0.2 0 0 928.79 158.72
  L 928.79 233.90
  A 4.11 4.10 -0.0 0 0 932.90 238.00
  L 941.13 238.00
  A 4.13 4.13 0.0 0 0 945.26 233.87
  L 945.26 209.49
  Q 945.26 209.00 945.76 209.00"
/>
<path stroke="#9c9fa3" vector-effect="non-scaling-stroke" d="
  M 1026.18 158.79
  A 4.05 4.05 0.0 0 0 1022.13 154.74
  L 1013.77 154.74
  A 4.05 4.05 0.0 0 0 1009.72 158.79
  L 1009.72 233.93
  A 4.05 4.05 0.0 0 0 1013.77 237.98
  L 1022.13 237.98
  A 4.05 4.05 0.0 0 0 1026.18 233.93
  L 1026.18 158.79"
/>
<path stroke="#9c9fa3" vector-effect="non-scaling-stroke" d="
  M 1041.39 158.87
  L 1041.13 233.69
  A 4.31 4.31 0.0 0 0 1045.42 238.02
  L 1075.55 238.12
  A 39.93 39.84 -89.8 0 0 1115.53 198.33
  L 1115.55 194.75
  A 39.93 39.84 -89.8 0 0 1075.85 154.68
  L 1045.72 154.58
  A 4.31 4.31 0.0 0 0 1041.39 158.87"
/>
<path stroke="#9c9fa3" vector-effect="non-scaling-stroke" d="
  M 1187.66 207.04
  C 1182.80 223.91 1160.55 227.74 1147.90 218.68
  C 1136.51 210.53 1134.93 192.58 1142.37 181.39
  C 1148.07 172.82 1159.32 169.69 1169.17 171.52
  C 1176.32 172.85 1182.11 177.00 1186.08 182.94
  A 2.42 2.42 0.0 0 0 1188.09 184.01
  C 1191.02 184.03 1205.55 185.76 1201.54 177.99
  C 1195.22 165.71 1185.28 157.74 1171.52 155.43
  C 1160.36 153.56 1148.66 155.44 1139.33 161.98
  C 1109.90 182.59 1118.02 232.62 1155.25 239.05
  C 1183.13 243.86 1206.07 224.59 1205.79 196.19
  C 1205.76 193.78 1204.96 190.77 1202.25 190.76
  Q 1182.97 190.73 1164.08 190.76
  A 3.78 3.78 0.0 0 0 1160.30 194.54
  L 1160.30 202.40
  A 4.10 4.09 0.1 0 0 1164.40 206.50
  L 1187.25 206.50
  Q 1187.82 206.50 1187.66 207.04"
/>
<path stroke="#9c9fa3" vector-effect="non-scaling-stroke" d="
  M 1231.99 170.82
  Q 1263.58 170.59 1273.25 170.77
  C 1280.25 170.90 1278.57 162.96 1278.41 158.49
  A 3.88 3.87 -1.0 0 0 1274.53 154.75
  L 1219.03 154.75
  A 3.97 3.97 0.0 0 0 1215.06 158.72
  L 1215.06 233.78
  A 4.22 4.22 0.0 0 0 1219.28 238.00
  L 1274.28 237.99
  A 4.12 4.11 0.9 0 0 1278.40 234.01
  Q 1278.54 230.14 1278.44 226.26
  C 1278.35 222.42 1275.94 221.72 1272.49 221.74
  Q 1252.28 221.80 1232.02 221.73
  Q 1231.53 221.73 1231.53 221.23
  L 1231.52 204.77
  Q 1231.52 204.27 1232.02 204.27
  Q 1250.47 204.21 1268.93 204.26
  C 1272.41 204.28 1273.37 202.70 1273.43 199.49
  C 1273.51 195.77 1274.99 188.14 1268.99 188.18
  Q 1250.54 188.28 1232.03 188.25
  Q 1231.52 188.25 1231.52 187.74
  L 1231.52 171.28
  Q 1231.53 170.82 1231.99 170.82"
/>
<path stroke="#80d6da" vector-effect="non-scaling-stroke" d="
  M 135.86 199.75
  A 3.05 3.05 0.0 0 0 135.87 194.29
  L 78.36 165.47
  A 3.05 3.05 0.0 0 0 74.28 169.59
  L 87.41 195.15
  A 3.05 3.05 0.0 0 1 87.43 197.90
  L 74.37 224.12
  A 3.05 3.05 0.0 0 0 78.45 228.22
  L 135.86 199.75"
/>
<path stroke="#80d6da" vector-effect="non-scaling-stroke" d="
  M 267.56 169.57
  A 3.03 3.03 0.0 0 0 263.49 165.52
  L 206.03 194.29
  A 3.03 3.03 0.0 0 0 206.04 199.71
  L 263.52 228.24
  A 3.03 3.03 0.0 0 0 267.56 224.14
  L 254.52 198.85
  A 3.03 3.03 0.0 0 1 254.49 196.12
  L 267.56 169.57"
/>
<path stroke="#80d6da" vector-effect="non-scaling-stroke" d="
  M 188.17 196.96
  A 17.19 17.19 0.0 0 0 170.98 179.77
  A 17.19 17.19 0.0 0 0 153.79 196.96
  A 17.19 17.19 0.0 0 0 170.98 214.15
  A 17.19 17.19 0.0 0 0 188.17 196.96"
/>
<path stroke="#80d6da" vector-effect="non-scaling-stroke" d="
  M 147.95 223.92
  A 3.07 3.07 0.0 0 0 144.07 220.04
  L 83.44 240.20
  A 3.07 3.07 0.0 0 0 83.47 246.04
  L 110.56 254.77
  A 3.07 3.07 0.0 0 1 112.52 256.72
  L 121.91 284.64
  A 3.07 3.07 0.0 0 0 127.73 284.63
  L 147.95 223.92"
/>
<path stroke="#80d6da" vector-effect="non-scaling-stroke" d="
  M 258.58 246.00
  A 3.03 3.03 0.0 0 0 258.60 240.24
  L 197.76 220.01
  A 3.03 3.03 0.0 0 0 193.93 223.84
  L 214.21 284.76
  A 3.03 3.03 0.0 0 0 219.96 284.76
  L 229.39 256.69
  A 3.03 3.03 0.0 0 1 231.34 254.77
  L 258.58 246.00"
/>
<path stroke="#80d6da" vector-effect="non-scaling-stroke" d="
  M 198.36 293.51
  A 3.00 3.00 0.0 0 0 202.37 289.48
  L 173.65 232.18
  A 3.00 3.00 0.0 0 0 168.29 232.18
  L 139.54 289.53
  A 3.00 3.00 0.0 0 0 143.59 293.54
  L 169.13 280.44
  A 3.00 3.00 0.0 0 1 171.82 280.42
  L 198.36 293.51"
/>
<path stroke="#9c9fa3" vector-effect="non-scaling-stroke" d="
  M 458.97 199.78
  A 0.34 0.34 0.0 0 0 459.28 200.25
  L 477.12 200.25
  A 0.34 0.34 0.0 0 0 477.43 199.78
  L 468.51 178.50
  A 0.34 0.34 0.0 0 0 467.89 178.50
  L 458.97 199.78"
/>
<path stroke="#9c9fa3" vector-effect="non-scaling-stroke" d="
  M 628.93 171.14
  L 628.97 194.92
  A 0.35 0.35 0.0 0 0 629.32 195.27
  L 651.95 195.23
  A 11.82 11.27 -0.1 0 0 663.75 183.94
  L 663.75 182.00
  A 11.82 11.27 -0.1 0 0 651.91 170.75
  L 629.28 170.79
  A 0.35 0.35 0.0 0 0 628.93 171.14"
/>
<path stroke="#9c9fa3" vector-effect="non-scaling-stroke" d="
  M 865.32 171.03
  L 865.26 187.81
  A 0.36 0.36 0.0 0 0 865.62 188.17
  L 888.22 188.25
  A 9.60 8.02 0.2 0 0 897.85 180.27
  L 897.85 178.81
  A 9.60 8.02 0.2 0 0 888.28 170.75
  L 865.68 170.67
  A 0.36 0.36 0.0 0 0 865.32 171.03"
/>
<path stroke="#9c9fa3" vector-effect="non-scaling-stroke" d="
  M 865.27 204.49
  L 865.29 221.63
  A 0.43 0.43 0.0 0 0 865.73 222.06
  L 890.20 222.02
  A 11.56 8.23 -0.1 0 0 901.74 213.77
  L 901.74 212.23
  A 11.56 8.23 -0.1 0 0 890.16 204.02
  L 865.69 204.06
  A 0.43 0.43 0.0 0 0 865.27 204.49"
/>
<path stroke="#9c9fa3" vector-effect="non-scaling-stroke" d="
  M 945.19 171.37
  L 945.27 192.49
  A 0.59 0.59 0.0 0 0 945.86 193.08
  L 969.33 193.00
  A 12.48 10.26 -0.2 0 0 981.77 182.70
  L 981.77 180.92
  A 12.48 10.26 -0.2 0 0 969.25 170.70
  L 945.78 170.78
  A 0.59 0.59 0.0 0 0 945.19 171.37"
/>
<path stroke="#9c9fa3" vector-effect="non-scaling-stroke" d="
  M 1057.70 171.49
  L 1057.62 221.29
  A 0.80 0.80 0.0 0 0 1058.42 222.10
  L 1076.45 222.13
  A 24.17 22.65 -89.9 0 0 1099.14 198.00
  L 1099.14 194.94
  A 24.17 22.65 -89.9 0 0 1076.53 170.73
  L 1058.50 170.70
  A 0.80 0.80 0.0 0 0 1057.70 171.49"
/>
</g>
<path fill="#ffffff" d="
  M 0.00 0.00
  L 1386.00 0.00
  L 1386.00 370.00
  L 0.00 370.00
  L 0.00 0.00
  Z
  M 143.71 100.29
  A 3.10 3.10 0.0 0 0 139.55 104.45
  L 168.18 161.64
  A 3.10 3.10 0.0 0 0 173.72 161.64
  L 202.40 104.43
  A 3.10 3.10 0.0 0 0 198.20 100.30
  L 172.86 113.52
  A 3.10 3.10 0.0 0 1 170.03 113.54
  L 143.71 100.29
  Z
  M 144.15 174.00
  A 3.03 3.03 0.0 0 0 147.98 170.17
  L 127.71 109.29
  A 3.03 3.03 0.0 0 0 121.96 109.28
  L 112.53 137.30
  A 3.03 3.03 0.0 0 1 110.58 139.22
  L 83.34 147.99
  A 3.03 3.03 0.0 0 0 83.31 153.75
  L 144.15 174.00
  Z
  M 219.98 109.28
  A 3.04 3.04 0.0 0 0 214.21 109.28
  L 193.95 170.14
  A 3.04 3.04 0.0 0 0 197.79 173.98
  L 258.59 153.76
  A 3.04 3.04 0.0 0 0 258.57 147.98
  L 231.34 139.22
  A 3.04 3.04 0.0 0 1 229.39 137.29
  L 219.98 109.28
  Z
  M 393.73 222.86
  C 380.89 225.27 369.03 220.02 365.23 206.97
  C 360.84 191.88 366.01 174.88 383.11 171.55
  C 393.76 169.47 404.36 172.86 409.17 183.30
  C 410.95 187.15 416.54 186.07 421.26 185.99
  C 426.04 185.91 426.29 182.51 424.82 178.92
  C 419.03 164.78 407.15 156.66 392.22 154.98
  C 376.82 153.26 361.28 159.97 353.44 173.45
  C 341.37 194.18 346.96 225.14 369.83 236.12
  C 377.18 239.66 387.98 240.70 395.00 239.34
  Q 416.54 235.18 424.85 215.52
  C 426.40 211.84 425.82 208.24 421.00 208.35
  C 418.28 208.41 410.63 207.63 409.30 210.54
  Q 404.60 220.83 393.73 222.86
  Z
  M 452.52 216.00
  L 483.71 216.00
  Q 484.22 216.00 484.42 216.47
  L 492.43 235.33
  A 4.35 4.35 0.0 0 0 496.34 237.98
  C 501.06 238.07 512.43 240.19 508.47 230.85
  Q 492.73 193.73 477.12 156.89
  A 3.49 3.49 0.0 0 0 473.90 154.75
  L 462.42 154.76
  A 3.37 3.36 11.5 0 0 459.32 156.81
  L 427.16 232.66
  A 3.84 3.84 0.0 0 0 430.70 238.00
  L 440.24 238.00
  A 3.93 3.92 -78.6 0 0 443.86 235.59
  L 451.91 216.41
  Q 452.08 216.00 452.52 216.00
  Z
  M 532.93 183.63
  Q 542.52 195.49 551.87 207.55
  C 554.23 210.60 557.20 213.58 560.43 209.43
  Q 570.47 196.54 580.39 183.85
  A 0.26 0.26 0.0 0 1 580.86 184.01
  L 580.85 233.86
  A 4.14 4.14 0.0 0 0 584.99 238.00
  L 593.40 238.00
  A 3.90 3.89 -90.0 0 0 597.29 234.10
  L 597.30 158.65
  A 3.90 3.90 0.0 0 0 593.40 154.75
  L 582.84 154.76
  A 2.84 2.84 0.0 0 0 580.56 155.91
  L 557.18 187.40
  A 0.34 0.34 0.0 0 1 556.63 187.40
  L 533.42 156.72
  A 4.97 4.97 0.0 0 0 529.46 154.75
  L 519.99 154.75
  A 3.99 3.99 0.0 0 0 516.00 158.74
  Q 516.02 196.28 516.20 233.50
  C 516.23 239.76 524.52 238.05 528.36 237.99
  A 4.19 4.19 0.0 0 0 532.50 233.80
  L 532.50 183.78
  Q 532.50 183.10 532.93 183.63
  Z
  M 629.53 211.01
  Q 640.52 210.97 651.50 211.02
  C 689.38 211.19 690.48 155.02 651.24 154.80
  Q 633.61 154.70 616.21 154.77
  A 3.73 3.73 0.0 0 0 612.49 158.50
  L 612.50 233.99
  A 4.01 4.01 0.0 0 0 616.49 238.00
  C 620.67 238.01 629.14 239.81 629.03 233.00
  Q 628.87 222.29 628.98 211.57
  Q 628.98 211.01 629.53 211.01
  Z
  M 743.16 202.50
  C 743.07 216.42 733.13 224.84 719.17 222.35
  C 708.30 220.41 704.15 211.25 704.14 200.75
  Q 704.13 179.84 704.16 159.19
  Q 704.16 154.75 699.72 154.75
  L 691.27 154.75
  A 3.60 3.59 -89.9 0 0 687.68 158.34
  Q 687.67 180.00 687.91 202.25
  Q 688.01 210.79 690.44 217.04
  C 696.86 233.49 714.84 241.75 731.78 238.06
  C 748.74 234.37 759.64 220.01 759.71 202.75
  Q 759.79 180.47 759.74 158.52
  A 3.78 3.78 0.0 0 0 755.96 154.75
  L 746.84 154.75
  A 3.56 3.55 90.0 0 0 743.29 158.31
  Q 743.29 180.66 743.16 202.50
  Z
  M 787.27 180.65
  Q 786.48 174.43 791.65 172.36
  C 798.71 169.53 817.66 168.73 820.10 179.54
  C 820.65 182.00 821.36 183.96 824.00 183.98
  Q 828.50 184.02 832.99 183.78
  Q 837.26 183.54 836.73 179.00
  C 835.41 167.69 827.33 159.21 816.75 156.46
  C 798.25 151.66 768.83 155.80 771.19 182.24
  C 772.30 194.70 785.91 199.83 796.43 202.62
  C 803.31 204.45 815.51 206.49 820.71 210.78
  C 823.46 213.06 822.74 217.21 820.54 219.53
  C 814.83 225.56 800.63 224.12 793.57 221.90
  Q 788.21 220.20 786.15 215.63
  C 784.25 211.38 786.38 208.46 779.54 208.48
  C 776.77 208.49 768.42 207.37 768.58 212.00
  Q 769.05 225.92 780.33 233.54
  C 793.20 242.23 821.73 242.40 832.93 230.43
  C 839.03 223.92 840.63 212.81 836.55 204.85
  C 832.03 196.03 819.80 191.51 810.52 189.52
  C 802.94 187.90 792.10 186.28 787.65 181.45
  Q 787.33 181.11 787.27 180.65
  Z
  M 908.53 194.62
  C 908.90 194.05 909.70 193.34 909.94 192.99
  Q 914.00 187.19 914.24 179.74
  C 914.77 163.21 901.84 154.90 886.74 154.80
  Q 869.36 154.69 852.56 154.77
  A 3.75 3.75 0.0 0 0 848.83 158.52
  L 848.84 233.77
  A 4.19 4.19 0.0 0 0 852.99 237.96
  Q 871.03 238.12 889.50 237.89
  C 903.05 237.72 916.80 231.72 918.08 216.52
  Q 919.20 203.09 908.66 195.33
  Q 908.26 195.04 908.53 194.62
  Z
  M 945.76 209.00
  L 964.97 209.00
  Q 965.38 209.00 965.60 209.35
  L 982.34 236.17
  A 3.87 3.87 0.0 0 0 985.61 238.00
  Q 990.11 238.01 994.83 237.99
  C 1000.35 237.97 1000.83 234.06 998.20 230.07
  Q 990.34 218.15 982.61 206.26
  A 0.60 0.60 0.0 0 1 982.91 205.37
  C 995.81 200.79 999.84 188.38 997.49 175.75
  C 994.86 161.63 982.62 154.91 968.99 154.81
  Q 950.54 154.68 932.72 154.77
  A 3.96 3.95 -0.2 0 0 928.79 158.72
  L 928.79 233.90
  A 4.11 4.10 -0.0 0 0 932.90 238.00
  L 941.13 238.00
  A 4.13 4.13 0.0 0 0 945.26 233.87
  L 945.26 209.49
  Q 945.26 209.00 945.76 209.00
  Z
  M 1026.18 158.79
  A 4.05 4.05 0.0 0 0 1022.13 154.74
  L 1013.77 154.74
  A 4.05 4.05 0.0 0 0 1009.72 158.79
  L 1009.72 233.93
  A 4.05 4.05 0.0 0 0 1013.77 237.98
  L 1022.13 237.98
  A 4.05 4.05 0.0 0 0 1026.18 233.93
  L 1026.18 158.79
  Z
  M 1041.39 158.87
  L 1041.13 233.69
  A 4.31 4.31 0.0 0 0 1045.42 238.02
  L 1075.55 238.12
  A 39.93 39.84 -89.8 0 0 1115.53 198.33
  L 1115.55 194.75
  A 39.93 39.84 -89.8 0 0 1075.85 154.68
  L 1045.72 154.58
  A 4.31 4.31 0.0 0 0 1041.39 158.87
  Z
  M 1187.66 207.04
  C 1182.80 223.91 1160.55 227.74 1147.90 218.68
  C 1136.51 210.53 1134.93 192.58 1142.37 181.39
  C 1148.07 172.82 1159.32 169.69 1169.17 171.52
  C 1176.32 172.85 1182.11 177.00 1186.08 182.94
  A 2.42 2.42 0.0 0 0 1188.09 184.01
  C 1191.02 184.03 1205.55 185.76 1201.54 177.99
  C 1195.22 165.71 1185.28 157.74 1171.52 155.43
  C 1160.36 153.56 1148.66 155.44 1139.33 161.98
  C 1109.90 182.59 1118.02 232.62 1155.25 239.05
  C 1183.13 243.86 1206.07 224.59 1205.79 196.19
  C 1205.76 193.78 1204.96 190.77 1202.25 190.76
  Q 1182.97 190.73 1164.08 190.76
  A 3.78 3.78 0.0 0 0 1160.30 194.54
  L 1160.30 202.40
  A 4.10 4.09 0.1 0 0 1164.40 206.50
  L 1187.25 206.50
  Q 1187.82 206.50 1187.66 207.04
  Z
  M 1231.99 170.82
  Q 1263.58 170.59 1273.25 170.77
  C 1280.25 170.90 1278.57 162.96 1278.41 158.49
  A 3.88 3.87 -1.0 0 0 1274.53 154.75
  L 1219.03 154.75
  A 3.97 3.97 0.0 0 0 1215.06 158.72
  L 1215.06 233.78
  A 4.22 4.22 0.0 0 0 1219.28 238.00
  L 1274.28 237.99
  A 4.12 4.11 0.9 0 0 1278.40 234.01
  Q 1278.54 230.14 1278.44 226.26
  C 1278.35 222.42 1275.94 221.72 1272.49 221.74
  Q 1252.28 221.80 1232.02 221.73
  Q 1231.53 221.73 1231.53 221.23
  L 1231.52 204.77
  Q 1231.52 204.27 1232.02 204.27
  Q 1250.47 204.21 1268.93 204.26
  C 1272.41 204.28 1273.37 202.70 1273.43 199.49
  C 1273.51 195.77 1274.99 188.14 1268.99 188.18
  Q 1250.54 188.28 1232.03 188.25
  Q 1231.52 188.25 1231.52 187.74
  L 1231.52 171.28
  Q 1231.53 170.82 1231.99 170.82
  Z
  M 135.86 199.75
  A 3.05 3.05 0.0 0 0 135.87 194.29
  L 78.36 165.47
  A 3.05 3.05 0.0 0 0 74.28 169.59
  L 87.41 195.15
  A 3.05 3.05 0.0 0 1 87.43 197.90
  L 74.37 224.12
  A 3.05 3.05 0.0 0 0 78.45 228.22
  L 135.86 199.75
  Z
  M 267.56 169.57
  A 3.03 3.03 0.0 0 0 263.49 165.52
  L 206.03 194.29
  A 3.03 3.03 0.0 0 0 206.04 199.71
  L 263.52 228.24
  A 3.03 3.03 0.0 0 0 267.56 224.14
  L 254.52 198.85
  A 3.03 3.03 0.0 0 1 254.49 196.12
  L 267.56 169.57
  Z
  M 188.17 196.96
  A 17.19 17.19 0.0 0 0 170.98 179.77
  A 17.19 17.19 0.0 0 0 153.79 196.96
  A 17.19 17.19 0.0 0 0 170.98 214.15
  A 17.19 17.19 0.0 0 0 188.17 196.96
  Z
  M 147.95 223.92
  A 3.07 3.07 0.0 0 0 144.07 220.04
  L 83.44 240.20
  A 3.07 3.07 0.0 0 0 83.47 246.04
  L 110.56 254.77
  A 3.07 3.07 0.0 0 1 112.52 256.72
  L 121.91 284.64
  A 3.07 3.07 0.0 0 0 127.73 284.63
  L 147.95 223.92
  Z
  M 258.58 246.00
  A 3.03 3.03 0.0 0 0 258.60 240.24
  L 197.76 220.01
  A 3.03 3.03 0.0 0 0 193.93 223.84
  L 214.21 284.76
  A 3.03 3.03 0.0 0 0 219.96 284.76
  L 229.39 256.69
  A 3.03 3.03 0.0 0 1 231.34 254.77
  L 258.58 246.00
  Z
  M 198.36 293.51
  A 3.00 3.00 0.0 0 0 202.37 289.48
  L 173.65 232.18
  A 3.00 3.00 0.0 0 0 168.29 232.18
  L 139.54 289.53
  A 3.00 3.00 0.0 0 0 143.59 293.54
  L 169.13 280.44
  A 3.00 3.00 0.0 0 1 171.82 280.42
  L 198.36 293.51
  Z"
/>
<path fill="#00adb5" d="
  M 143.71 100.29
  L 170.03 113.54
  A 3.10 3.10 0.0 0 0 172.86 113.52
  L 198.20 100.30
  A 3.10 3.10 0.0 0 1 202.40 104.43
  L 173.72 161.64
  A 3.10 3.10 0.0 0 1 168.18 161.64
  L 139.55 104.45
  A 3.10 3.10 0.0 0 1 143.71 100.29
  Z"
/>
<path fill="#00adb5" d="
  M 144.15 174.00
  L 83.31 153.75
  A 3.03 3.03 0.0 0 1 83.34 147.99
  L 110.58 139.22
  A 3.03 3.03 0.0 0 0 112.53 137.30
  L 121.96 109.28
  A 3.03 3.03 0.0 0 1 127.71 109.29
  L 147.98 170.17
  A 3.03 3.03 0.0 0 1 144.15 174.00
  Z"
/>
<path fill="#00adb5" d="
  M 219.98 109.28
  L 229.39 137.29
  A 3.04 3.04 0.0 0 0 231.34 139.22
  L 258.57 147.98
  A 3.04 3.04 0.0 0 1 258.59 153.76
  L 197.79 173.98
  A 3.04 3.04 0.0 0 1 193.95 170.14
  L 214.21 109.28
  A 3.04 3.04 0.0 0 1 219.98 109.28
  Z"
/>
<path fill="#393e46" d="
  M 365.23 206.97
  C 369.03 220.02 380.89 225.27 393.73 222.86
  Q 404.60 220.83 409.30 210.54
  C 410.63 207.63 418.28 208.41 421.00 208.35
  C 425.82 208.24 426.40 211.84 424.85 215.52
  Q 416.54 235.18 395.00 239.34
  C 387.98 240.70 377.18 239.66 369.83 236.12
  C 346.96 225.14 341.37 194.18 353.44 173.45
  C 361.28 159.97 376.82 153.26 392.22 154.98
  C 407.15 156.66 419.03 164.78 424.82 178.92
  C 426.29 182.51 426.04 185.91 421.26 185.99
  C 416.54 186.07 410.95 187.15 409.17 183.30
  C 404.36 172.86 393.76 169.47 383.11 171.55
  C 366.01 174.88 360.84 191.88 365.23 206.97
  Z"
/>
<path fill="#393e46" d="
  M 451.91 216.41
  L 443.86 235.59
  A 3.93 3.92 -78.6 0 1 440.24 238.00
  L 430.70 238.00
  A 3.84 3.84 0.0 0 1 427.16 232.66
  L 459.32 156.81
  A 3.37 3.36 11.5 0 1 462.42 154.76
  L 473.90 154.75
  A 3.49 3.49 0.0 0 1 477.12 156.89
  Q 492.73 193.73 508.47 230.85
  C 512.43 240.19 501.06 238.07 496.34 237.98
  A 4.35 4.35 0.0 0 1 492.43 235.33
  L 484.42 216.47
  Q 484.22 216.00 483.71 216.00
  L 452.52 216.00
  Q 452.08 216.00 451.91 216.41
  Z
  M 458.97 199.78
  A 0.34 0.34 0.0 0 0 459.28 200.25
  L 477.12 200.25
  A 0.34 0.34 0.0 0 0 477.43 199.78
  L 468.51 178.50
  A 0.34 0.34 0.0 0 0 467.89 178.50
  L 458.97 199.78
  Z"
/>
<path fill="#393e46" d="
  M 532.50 183.78
  L 532.50 233.80
  A 4.19 4.19 0.0 0 1 528.36 237.99
  C 524.52 238.05 516.23 239.76 516.20 233.50
  Q 516.02 196.28 516.00 158.74
  A 3.99 3.99 0.0 0 1 519.99 154.75
  L 529.46 154.75
  A 4.97 4.97 0.0 0 1 533.42 156.72
  L 556.63 187.40
  A 0.34 0.34 0.0 0 0 557.18 187.40
  L 580.56 155.91
  A 2.84 2.84 0.0 0 1 582.84 154.76
  L 593.40 154.75
  A 3.90 3.90 0.0 0 1 597.30 158.65
  L 597.29 234.10
  A 3.90 3.89 -90.0 0 1 593.40 238.00
  L 584.99 238.00
  A 4.14 4.14 0.0 0 1 580.85 233.86
  L 580.86 184.01
  A 0.26 0.26 0.0 0 0 580.39 183.85
  Q 570.47 196.54 560.43 209.43
  C 557.20 213.58 554.23 210.60 551.87 207.55
  Q 542.52 195.49 532.93 183.63
  Q 532.50 183.10 532.50 183.78
  Z"
/>
<path fill="#393e46" d="
  M 628.98 211.57
  Q 628.87 222.29 629.03 233.00
  C 629.14 239.81 620.67 238.01 616.49 238.00
  A 4.01 4.01 0.0 0 1 612.50 233.99
  L 612.49 158.50
  A 3.73 3.73 0.0 0 1 616.21 154.77
  Q 633.61 154.70 651.24 154.80
  C 690.48 155.02 689.38 211.19 651.50 211.02
  Q 640.52 210.97 629.53 211.01
  Q 628.98 211.01 628.98 211.57
  Z
  M 628.93 171.14
  L 628.97 194.92
  A 0.35 0.35 0.0 0 0 629.32 195.27
  L 651.95 195.23
  A 11.82 11.27 -0.1 0 0 663.75 183.94
  L 663.75 182.00
  A 11.82 11.27 -0.1 0 0 651.91 170.75
  L 629.28 170.79
  A 0.35 0.35 0.0 0 0 628.93 171.14
  Z"
/>
<path fill="#393e46" d="
  M 719.17 222.35
  C 733.13 224.84 743.07 216.42 743.16 202.50
  Q 743.29 180.66 743.29 158.31
  A 3.56 3.55 90.0 0 1 746.84 154.75
  L 755.96 154.75
  A 3.78 3.78 0.0 0 1 759.74 158.52
  Q 759.79 180.47 759.71 202.75
  C 759.64 220.01 748.74 234.37 731.78 238.06
  C 714.84 241.75 696.86 233.49 690.44 217.04
  Q 688.01 210.79 687.91 202.25
  Q 687.67 180.00 687.68 158.34
  A 3.60 3.59 -89.9 0 1 691.27 154.75
  L 699.72 154.75
  Q 704.16 154.75 704.16 159.19
  Q 704.13 179.84 704.14 200.75
  C 704.15 211.25 708.30 220.41 719.17 222.35
  Z"
/>
<path fill="#393e46" d="
  M 787.65 181.45
  C 792.10 186.28 802.94 187.90 810.52 189.52
  C 819.80 191.51 832.03 196.03 836.55 204.85
  C 840.63 212.81 839.03 223.92 832.93 230.43
  C 821.73 242.40 793.20 242.23 780.33 233.54
  Q 769.05 225.92 768.58 212.00
  C 768.42 207.37 776.77 208.49 779.54 208.48
  C 786.38 208.46 784.25 211.38 786.15 215.63
  Q 788.21 220.20 793.57 221.90
  C 800.63 224.12 814.83 225.56 820.54 219.53
  C 822.74 217.21 823.46 213.06 820.71 210.78
  C 815.51 206.49 803.31 204.45 796.43 202.62
  C 785.91 199.83 772.30 194.70 771.19 182.24
  C 768.83 155.80 798.25 151.66 816.75 156.46
  C 827.33 159.21 835.41 167.69 836.73 179.00
  Q 837.26 183.54 832.99 183.78
  Q 828.50 184.02 824.00 183.98
  C 821.36 183.96 820.65 182.00 820.10 179.54
  C 817.66 168.73 798.71 169.53 791.65 172.36
  Q 786.48 174.43 787.27 180.65
  Q 787.33 181.11 787.65 181.45
  Z"
/>
<path fill="#393e46" d="
  M 908.66 195.33
  Q 919.20 203.09 918.08 216.52
  C 916.80 231.72 903.05 237.72 889.50 237.89
  Q 871.03 238.12 852.99 237.96
  A 4.19 4.19 0.0 0 1 848.84 233.77
  L 848.83 158.52
  A 3.75 3.75 0.0 0 1 852.56 154.77
  Q 869.36 154.69 886.74 154.80
  C 901.84 154.90 914.77 163.21 914.24 179.74
  Q 914.00 187.19 909.94 192.99
  C 909.70 193.34 908.90 194.05 908.53 194.62
  Q 908.26 195.04 908.66 195.33
  Z
  M 865.32 171.03
  L 865.26 187.81
  A 0.36 0.36 0.0 0 0 865.62 188.17
  L 888.22 188.25
  A 9.60 8.02 0.2 0 0 897.85 180.27
  L 897.85 178.81
  A 9.60 8.02 0.2 0 0 888.28 170.75
  L 865.68 170.67
  A 0.36 0.36 0.0 0 0 865.32 171.03
  Z
  M 865.27 204.49
  L 865.29 221.63
  A 0.43 0.43 0.0 0 0 865.73 222.06
  L 890.20 222.02
  A 11.56 8.23 -0.1 0 0 901.74 213.77
  L 901.74 212.23
  A 11.56 8.23 -0.1 0 0 890.16 204.02
  L 865.69 204.06
  A 0.43 0.43 0.0 0 0 865.27 204.49
  Z"
/>
<path fill="#393e46" d="
  M 945.26 209.49
  L 945.26 233.87
  A 4.13 4.13 0.0 0 1 941.13 238.00
  L 932.90 238.00
  A 4.11 4.10 0.0 0 1 928.79 233.90
  L 928.79 158.72
  A 3.96 3.95 -0.2 0 1 932.72 154.77
  Q 950.54 154.68 968.99 154.81
  C 982.62 154.91 994.86 161.63 997.49 175.75
  C 999.84 188.38 995.81 200.79 982.91 205.37
  A 0.60 0.60 0.0 0 0 982.61 206.26
  Q 990.34 218.15 998.20 230.07
  C 1000.83 234.06 1000.35 237.97 994.83 237.99
  Q 990.11 238.01 985.61 238.00
  A 3.87 3.87 0.0 0 1 982.34 236.17
  L 965.60 209.35
  Q 965.38 209.00 964.97 209.00
  L 945.76 209.00
  Q 945.26 209.00 945.26 209.49
  Z
  M 945.19 171.37
  L 945.27 192.49
  A 0.59 0.59 0.0 0 0 945.86 193.08
  L 969.33 193.00
  A 12.48 10.26 -0.2 0 0 981.77 182.70
  L 981.77 180.92
  A 12.48 10.26 -0.2 0 0 969.25 170.70
  L 945.78 170.78
  A 0.59 0.59 0.0 0 0 945.19 171.37
  Z"
/>
<rect fill="#393e46" x="1009.72" y="154.74" width="16.46" height="83.24" rx="4.05"/>
<path fill="#393e46" d="
  M 1041.39 158.87
  A 4.31 4.31 0.0 0 1 1045.72 154.58
  L 1075.85 154.68
  A 39.93 39.84 -89.8 0 1 1115.55 194.75
  L 1115.53 198.33
  A 39.93 39.84 -89.8 0 1 1075.55 238.12
  L 1045.42 238.02
  A 4.31 4.31 0.0 0 1 1041.13 233.69
  L 1041.39 158.87
  Z
  M 1057.70 171.49
  L 1057.62 221.29
  A 0.80 0.80 0.0 0 0 1058.42 222.10
  L 1076.45 222.13
  A 24.17 22.65 -89.9 0 0 1099.14 198.00
  L 1099.14 194.94
  A 24.17 22.65 -89.9 0 0 1076.53 170.73
  L 1058.50 170.70
  A 0.80 0.80 0.0 0 0 1057.70 171.49
  Z"
/>
<path fill="#393e46" d="
  M 1187.25 206.50
  L 1164.40 206.50
  A 4.10 4.09 0.1 0 1 1160.30 202.40
  L 1160.30 194.54
  A 3.78 3.78 0.0 0 1 1164.08 190.76
  Q 1182.97 190.73 1202.25 190.76
  C 1204.96 190.77 1205.76 193.78 1205.79 196.19
  C 1206.07 224.59 1183.13 243.86 1155.25 239.05
  C 1118.02 232.62 1109.90 182.59 1139.33 161.98
  C 1148.66 155.44 1160.36 153.56 1171.52 155.43
  C 1185.28 157.74 1195.22 165.71 1201.54 177.99
  C 1205.55 185.76 1191.02 184.03 1188.09 184.01
  A 2.42 2.42 0.0 0 1 1186.08 182.94
  C 1182.11 177.00 1176.32 172.85 1169.17 171.52
  C 1159.32 169.69 1148.07 172.82 1142.37 181.39
  C 1134.93 192.58 1136.51 210.53 1147.90 218.68
  C 1160.55 227.74 1182.80 223.91 1187.66 207.04
  Q 1187.82 206.50 1187.25 206.50
  Z"
/>
<path fill="#393e46" d="
  M 1231.52 171.28
  L 1231.52 187.74
  Q 1231.52 188.25 1232.03 188.25
  Q 1250.54 188.28 1268.99 188.18
  C 1274.99 188.14 1273.51 195.77 1273.43 199.49
  C 1273.37 202.70 1272.41 204.28 1268.93 204.26
  Q 1250.47 204.21 1232.02 204.27
  Q 1231.52 204.27 1231.52 204.77
  L 1231.53 221.23
  Q 1231.53 221.73 1232.02 221.73
  Q 1252.28 221.80 1272.49 221.74
  C 1275.94 221.72 1278.35 222.42 1278.44 226.26
  Q 1278.54 230.14 1278.40 234.01
  A 4.12 4.11 0.9 0 1 1274.28 237.99
  L 1219.28 238.00
  A 4.22 4.22 0.0 0 1 1215.06 233.78
  L 1215.06 158.72
  A 3.97 3.97 0.0 0 1 1219.03 154.75
  L 1274.53 154.75
  A 3.88 3.87 -1.0 0 1 1278.41 158.49
  C 1278.57 162.96 1280.25 170.90 1273.25 170.77
  Q 1263.58 170.59 1231.99 170.82
  Q 1231.53 170.82 1231.52 171.28
  Z"
/>
<path fill="#00adb5" d="
  M 135.86 199.75
  L 78.45 228.22
  A 3.05 3.05 0.0 0 1 74.37 224.12
  L 87.43 197.90
  A 3.05 3.05 0.0 0 0 87.41 195.15
  L 74.28 169.59
  A 3.05 3.05 0.0 0 1 78.36 165.47
  L 135.87 194.29
  A 3.05 3.05 0.0 0 1 135.86 199.75
  Z"
/>
<path fill="#00adb5" d="
  M 267.56 169.57
  L 254.49 196.12
  A 3.03 3.03 0.0 0 0 254.52 198.85
  L 267.56 224.14
  A 3.03 3.03 0.0 0 1 263.52 228.24
  L 206.04 199.71
  A 3.03 3.03 0.0 0 1 206.03 194.29
  L 263.49 165.52
  A 3.03 3.03 0.0 0 1 267.56 169.57
  Z"
/>
<path fill="#ffffff" d="
  M 628.93 171.14
  A 0.35 0.35 0.0 0 1 629.28 170.79
  L 651.91 170.75
  A 11.82 11.27 -0.1 0 1 663.75 182.00
  L 663.75 183.94
  A 11.82 11.27 -0.1 0 1 651.95 195.23
  L 629.32 195.27
  A 0.35 0.35 0.0 0 1 628.97 194.92
  L 628.93 171.14
  Z"
/>
<path fill="#ffffff" d="
  M 865.32 171.03
  A 0.36 0.36 0.0 0 1 865.68 170.67
  L 888.28 170.75
  A 9.60 8.02 0.2 0 1 897.85 178.81
  L 897.85 180.27
  A 9.60 8.02 0.2 0 1 888.22 188.25
  L 865.62 188.17
  A 0.36 0.36 0.0 0 1 865.26 187.81
  L 865.32 171.03
  Z"
/>
<path fill="#ffffff" d="
  M 945.19 171.37
  A 0.59 0.59 0.0 0 1 945.78 170.78
  L 969.25 170.70
  A 12.48 10.26 -0.2 0 1 981.77 180.92
  L 981.77 182.70
  A 12.48 10.26 -0.2 0 1 969.33 193.00
  L 945.86 193.08
  A 0.59 0.59 0.0 0 1 945.27 192.49
  L 945.19 171.37
  Z"
/>
<path fill="#ffffff" d="
  M 1057.70 171.49
  A 0.80 0.80 0.0 0 1 1058.50 170.70
  L 1076.53 170.73
  A 24.17 22.65 -89.9 0 1 1099.14 194.94
  L 1099.14 198.00
  A 24.17 22.65 -89.9 0 1 1076.45 222.13
  L 1058.42 222.10
  A 0.80 0.80 0.0 0 1 1057.62 221.29
  L 1057.70 171.49
  Z"
/>
<path fill="#ffffff" d="
  M 458.97 199.78
  L 467.89 178.50
  A 0.34 0.34 0.0 0 1 468.51 178.50
  L 477.43 199.78
  A 0.34 0.34 0.0 0 1 477.12 200.25
  L 459.28 200.25
  A 0.34 0.34 0.0 0 1 458.97 199.78
  Z"
/>
<circle fill="#00adb5" cx="170.98" cy="196.96" r="17.19"/>
<path fill="#ffffff" d="
  M 865.27 204.49
  A 0.43 0.43 0.0 0 1 865.69 204.06
  L 890.16 204.02
  A 11.56 8.23 -0.1 0 1 901.74 212.23
  L 901.74 213.77
  A 11.56 8.23 -0.1 0 1 890.20 222.02
  L 865.73 222.06
  A 0.43 0.43 0.0 0 1 865.29 221.63
  L 865.27 204.49
  Z"
/>
<path fill="#00adb5" d="
  M 147.95 223.92
  L 127.73 284.63
  A 3.07 3.07 0.0 0 1 121.91 284.64
  L 112.52 256.72
  A 3.07 3.07 0.0 0 0 110.56 254.77
  L 83.47 246.04
  A 3.07 3.07 0.0 0 1 83.44 240.20
  L 144.07 220.04
  A 3.07 3.07 0.0 0 1 147.95 223.92
  Z"
/>
<path fill="#00adb5" d="
  M 258.58 246.00
  L 231.34 254.77
  A 3.03 3.03 0.0 0 0 229.39 256.69
  L 219.96 284.76
  A 3.03 3.03 0.0 0 1 214.21 284.76
  L 193.93 223.84
  A 3.03 3.03 0.0 0 1 197.76 220.01
  L 258.60 240.24
  A 3.03 3.03 0.0 0 1 258.58 246.00
  Z"
/>
<path fill="#00adb5" d="
  M 198.36 293.51
  L 171.82 280.42
  A 3.00 3.00 0.0 0 0 169.13 280.44
  L 143.59 293.54
  A 3.00 3.00 0.0 0 1 139.54 289.53
  L 168.29 232.18
  A 3.00 3.00 0.0 0 1 173.65 232.18
  L 202.37 289.48
  A 3.00 3.00 0.0 0 1 198.36 293.51
  Z"
/>
</svg>
