<?xml version="1.0" encoding="UTF-8" standalone="no"?>
<!DOCTYPE svg PUBLIC "-//W3C//DTD SVG 1.1//EN" "http://www.w3.org/Graphics/SVG/1.1/DTD/svg11.dtd">
<svg xmlns="http://www.w3.org/2000/svg" version="1.1" viewBox="0.00 0.00 396.00 422.00">
<g stroke-width="2.00" fill="none" stroke-linecap="butt">
<path stroke="#80d6da" vector-effect="non-scaling-stroke" d="
  M 196.75 95.73
  Q 177.60 86.53 158.64 76.93
  Q 156.46 75.82 154.99 76.10
  C 152.74 76.51 150.50 79.42 151.68 81.78
  Q 171.85 122.06 192.02 162.35
  Q 192.98 164.28 193.75 165.00
  C 195.59 166.71 199.11 165.83 200.11 163.83
  Q 220.19 123.77 240.23 83.69
  C 241.90 80.37 241.87 76.95 237.67 76.04
  A 3.25 3.21 37.3 0 0 235.50 76.32
  L 197.72 95.71
  Q 197.23 95.96 196.75 95.73"
/>
<path stroke="#80d6da" vector-effect="non-scaling-stroke" d="
  M 72.36 143.95
  A 4.26 4.26 0.0 0 0 72.30 152.04
  L 158.56 181.03
  A 4.26 4.26 0.0 0 0 163.95 175.64
  L 135.10 89.17
  A 4.26 4.26 0.0 0 0 127.02 89.16
  L 113.60 128.96
  A 4.26 4.26 0.0 0 1 110.86 131.66
  L 72.36 143.95"
/>
<path stroke="#80d6da" vector-effect="non-scaling-stroke" d="
  M 279.84 130.60
  Q 272.89 110.02 265.76 89.38
  C 264.39 85.38 259.13 85.18 257.83 89.08
  Q 243.58 131.70 229.35 174.34
  C 227.65 179.45 230.58 182.28 235.75 180.55
  Q 277.59 166.49 319.43 152.43
  C 323.03 151.22 325.07 148.81 322.56 145.23
  A 2.90 2.89 -8.4 0 0 321.06 144.12
  L 280.39 131.13
  A 0.86 0.85 -0.5 0 1 279.84 130.60"
/>
<path stroke="#80d6da" vector-effect="non-scaling-stroke" d="
  M 78.81 212.33
  A 0.98 0.98 0.0 0 1 78.81 213.21
  Q 69.36 232.20 60.07 250.97
  C 57.68 255.82 60.58 260.34 66.07 257.59
  Q 105.77 237.71 145.50 217.84
  Q 147.63 216.77 148.41 215.46
  C 150.48 211.95 147.50 209.93 144.47 208.42
  Q 105.19 188.88 65.91 169.34
  C 60.81 166.80 57.58 171.04 59.99 175.75
  Q 69.46 194.14 78.81 212.33"
/>
<path stroke="#80d6da" vector-effect="non-scaling-stroke" d="
  M 314.19 213.76
  Q 323.33 194.90 332.76 176.19
  C 333.87 173.98 334.45 171.82 332.82 169.94
  C 331.45 168.36 329.38 168.16 327.44 169.13
  Q 287.69 188.89 247.95 208.68
  Q 245.51 209.90 244.83 210.75
  C 243.33 212.67 243.68 215.94 246.08 217.15
  Q 285.84 237.06 325.60 256.96
  Q 328.45 258.38 329.66 258.44
  C 332.91 258.60 334.94 255.06 333.38 252.08
  Q 323.65 233.47 314.20 214.71
  Q 313.96 214.24 314.19 213.76"
/>
<path stroke="#80d6da" vector-effect="non-scaling-stroke" d="
  M 220.83 213.45
  A 24.37 24.37 0.0 0 0 196.46 189.08
  A 24.37 24.37 0.0 0 0 172.09 213.45
  A 24.37 24.37 0.0 0 0 196.46 237.82
  A 24.37 24.37 0.0 0 0 220.83 213.45"
/>
<path stroke="#80d6da" vector-effect="non-scaling-stroke" d="
  M 113.08 296.55
  Q 119.88 316.54 126.57 336.55
  C 128.23 341.51 133.54 342.52 135.30 337.26
  Q 149.30 295.25 163.33 253.25
  C 165.17 247.76 162.78 244.56 156.90 246.52
  Q 115.06 260.47 73.21 274.40
  Q 70.71 275.23 69.92 276.46
  C 68.13 279.24 70.08 282.31 73.01 283.23
  Q 92.75 289.44 112.42 295.90
  A 1.05 1.04 89.3 0 1 113.08 296.55"
/>
<path stroke="#80d6da" vector-effect="non-scaling-stroke" d="
  M 279.79 296.48
  Q 279.94 296.01 280.42 295.86
  Q 299.50 289.75 318.49 283.69
  Q 321.50 282.73 322.56 281.50
  C 324.38 279.42 323.70 275.74 320.76 274.76
  Q 277.97 260.51 235.18 246.26
  C 229.94 244.51 227.90 248.31 229.46 252.96
  Q 243.37 294.69 257.31 336.40
  Q 258.05 338.62 258.92 339.48
  C 261.26 341.75 264.87 340.78 265.91 337.70
  Q 272.91 317.01 279.79 296.48"
/>
<path stroke="#80d6da" vector-effect="non-scaling-stroke" d="
  M 196.20 331.02
  Q 214.78 340.18 233.26 349.54
  C 236.30 351.08 238.88 352.11 240.72 348.54
  Q 241.80 346.45 241.22 345.29
  Q 221.27 305.23 201.26 265.21
  C 199.64 261.97 197.24 259.52 193.71 262.12
  A 4.33 4.32 -4.8 0 0 192.39 263.68
  Q 172.70 303.11 152.88 342.69
  C 151.53 345.39 150.47 348.77 153.72 350.46
  C 155.32 351.28 156.92 350.95 158.44 350.15
  Q 176.81 340.50 195.28 331.02
  Q 195.74 330.79 196.20 331.02"
/>
</g>
<path fill="#ffffff" d="
  M 0.00 0.00
  L 396.00 0.00
  L 396.00 422.00
  L 0.00 422.00
  L 0.00 0.00
  Z
  M 196.75 95.73
  Q 177.60 86.53 158.64 76.93
  Q 156.46 75.82 154.99 76.10
  C 152.74 76.51 150.50 79.42 151.68 81.78
  Q 171.85 122.06 192.02 162.35
  Q 192.98 164.28 193.75 165.00
  C 195.59 166.71 199.11 165.83 200.11 163.83
  Q 220.19 123.77 240.23 83.69
  C 241.90 80.37 241.87 76.95 237.67 76.04
  A 3.25 3.21 37.3 0 0 235.50 76.32
  L 197.72 95.71
  Q 197.23 95.96 196.75 95.73
  Z
  M 72.36 143.95
  A 4.26 4.26 0.0 0 0 72.30 152.04
  L 158.56 181.03
  A 4.26 4.26 0.0 0 0 163.95 175.64
  L 135.10 89.17
  A 4.26 4.26 0.0 0 0 127.02 89.16
  L 113.60 128.96
  A 4.26 4.26 0.0 0 1 110.86 131.66
  L 72.36 143.95
  Z
  M 279.84 130.60
  Q 272.89 110.02 265.76 89.38
  C 264.39 85.38 259.13 85.18 257.83 89.08
  Q 243.58 131.70 229.35 174.34
  C 227.65 179.45 230.58 182.28 235.75 180.55
  Q 277.59 166.49 319.43 152.43
  C 323.03 151.22 325.07 148.81 322.56 145.23
  A 2.90 2.89 -8.4 0 0 321.06 144.12
  L 280.39 131.13
  A 0.86 0.85 -0.5 0 1 279.84 130.60
  Z
  M 78.81 212.33
  A 0.98 0.98 0.0 0 1 78.81 213.21
  Q 69.36 232.20 60.07 250.97
  C 57.68 255.82 60.58 260.34 66.07 257.59
  Q 105.77 237.71 145.50 217.84
  Q 147.63 216.77 148.41 215.46
  C 150.48 211.95 147.50 209.93 144.47 208.42
  Q 105.19 188.88 65.91 169.34
  C 60.81 166.80 57.58 171.04 59.99 175.75
  Q 69.46 194.14 78.81 212.33
  Z
  M 314.19 213.76
  Q 323.33 194.90 332.76 176.19
  C 333.87 173.98 334.45 171.82 332.82 169.94
  C 331.45 168.36 329.38 168.16 327.44 169.13
  Q 287.69 188.89 247.95 208.68
  Q 245.51 209.90 244.83 210.75
  C 243.33 212.67 243.68 215.94 246.08 217.15
  Q 285.84 237.06 325.60 256.96
  Q 328.45 258.38 329.66 258.44
  C 332.91 258.60 334.94 255.06 333.38 252.08
  Q 323.65 233.47 314.20 214.71
  Q 313.96 214.24 314.19 213.76
  Z
  M 220.83 213.45
  A 24.37 24.37 0.0 0 0 196.46 189.08
  A 24.37 24.37 0.0 0 0 172.09 213.45
  A 24.37 24.37 0.0 0 0 196.46 237.82
  A 24.37 24.37 0.0 0 0 220.83 213.45
  Z
  M 113.08 296.55
  Q 119.88 316.54 126.57 336.55
  C 128.23 341.51 133.54 342.52 135.30 337.26
  Q 149.30 295.25 163.33 253.25
  C 165.17 247.76 162.78 244.56 156.90 246.52
  Q 115.06 260.47 73.21 274.40
  Q 70.71 275.23 69.92 276.46
  C 68.13 279.24 70.08 282.31 73.01 283.23
  Q 92.75 289.44 112.42 295.90
  A 1.05 1.04 89.3 0 1 113.08 296.55
  Z
  M 279.79 296.48
  Q 279.94 296.01 280.42 295.86
  Q 299.50 289.75 318.49 283.69
  Q 321.50 282.73 322.56 281.50
  C 324.38 279.42 323.70 275.74 320.76 274.76
  Q 277.97 260.51 235.18 246.26
  C 229.94 244.51 227.90 248.31 229.46 252.96
  Q 243.37 294.69 257.31 336.40
  Q 258.05 338.62 258.92 339.48
  C 261.26 341.75 264.87 340.78 265.91 337.70
  Q 272.91 317.01 279.79 296.48
  Z
  M 196.20 331.02
  Q 214.78 340.18 233.26 349.54
  C 236.30 351.08 238.88 352.11 240.72 348.54
  Q 241.80 346.45 241.22 345.29
  Q 221.27 305.23 201.26 265.21
  C 199.64 261.97 197.24 259.52 193.71 262.12
  A 4.33 4.32 -4.8 0 0 192.39 263.68
  Q 172.70 303.11 152.88 342.69
  C 151.53 345.39 150.47 348.77 153.72 350.46
  C 155.32 351.28 156.92 350.95 158.44 350.15
  Q 176.81 340.50 195.28 331.02
  Q 195.74 330.79 196.20 331.02
  Z"
/>
<path fill="#00adb5" d="
  M 197.72 95.71
  L 235.50 76.32
  A 3.25 3.21 37.3 0 1 237.67 76.04
  C 241.87 76.95 241.90 80.37 240.23 83.69
  Q 220.19 123.77 200.11 163.83
  C 199.11 165.83 195.59 166.71 193.75 165.00
  Q 192.98 164.28 192.02 162.35
  Q 171.85 122.06 151.68 81.78
  C 150.50 79.42 152.74 76.51 154.99 76.10
  Q 156.46 75.82 158.64 76.93
  Q 177.60 86.53 196.75 95.73
  Q 197.23 95.96 197.72 95.71
  Z"
/>
<path fill="#00adb5" d="
  M 72.36 143.95
  L 110.86 131.66
  A 4.26 4.26 0.0 0 0 113.60 128.96
  L 127.02 89.16
  A 4.26 4.26 0.0 0 1 135.10 89.17
  L 163.95 175.64
  A 4.26 4.26 0.0 0 1 158.56 181.03
  L 72.30 152.04
  A 4.26 4.26 0.0 0 1 72.36 143.95
  Z"
/>
<path fill="#00adb5" d="
  M 279.84 130.60
  A 0.86 0.85 -0.5 0 0 280.39 131.13
  L 321.06 144.12
  A 2.90 2.89 -8.4 0 1 322.56 145.23
  C 325.07 148.81 323.03 151.22 319.43 152.43
  Q 277.59 166.49 235.75 180.55
  C 230.58 182.28 227.65 179.45 229.35 174.34
  Q 243.58 131.70 257.83 89.08
  C 259.13 85.18 264.39 85.38 265.76 89.38
  Q 272.89 110.02 279.84 130.60
  Z"
/>
<path fill="#00adb5" d="
  M 78.81 212.33
  Q 69.46 194.14 59.99 175.75
  C 57.58 171.04 60.81 166.80 65.91 169.34
  Q 105.19 188.88 144.47 208.42
  C 147.50 209.93 150.48 211.95 148.41 215.46
  Q 147.63 216.77 145.50 217.84
  Q 105.77 237.71 66.07 257.59
  C 60.58 260.34 57.68 255.82 60.07 250.97
  Q 69.36 232.20 78.81 213.21
  A 0.98 0.98 0.0 0 0 78.81 212.33
  Z"
/>
<path fill="#00adb5" d="
  M 314.20 214.71
  Q 323.65 233.47 333.38 252.08
  C 334.94 255.06 332.91 258.60 329.66 258.44
  Q 328.45 258.38 325.60 256.96
  Q 285.84 237.06 246.08 217.15
  C 243.68 215.94 243.33 212.67 244.83 210.75
  Q 245.51 209.90 247.95 208.68
  Q 287.69 188.89 327.44 169.13
  C 329.38 168.16 331.45 168.36 332.82 169.94
  C 334.45 171.82 333.87 173.98 332.76 176.19
  Q 323.33 194.90 314.19 213.76
  Q 313.96 214.24 314.20 214.71
  Z"
/>
<circle fill="#00adb5" cx="196.46" cy="213.45" r="24.37"/>
<path fill="#00adb5" d="
  M 112.42 295.90
  Q 92.75 289.44 73.01 283.23
  C 70.08 282.31 68.13 279.24 69.92 276.46
  Q 70.71 275.23 73.21 274.40
  Q 115.06 260.47 156.90 246.52
  C 162.78 244.56 165.17 247.76 163.33 253.25
  Q 149.30 295.25 135.30 337.26
  C 133.54 342.52 128.23 341.51 126.57 336.55
  Q 119.88 316.54 113.08 296.55
  A 1.05 1.04 89.3 0 0 112.42 295.90
  Z"
/>
<path fill="#00adb5" d="
  M 279.79 296.48
  Q 272.91 317.01 265.91 337.70
  C 264.87 340.78 261.26 341.75 258.92 339.48
  Q 258.05 338.62 257.31 336.40
  Q 243.37 294.69 229.46 252.96
  C 227.90 248.31 229.94 244.51 235.18 246.26
  Q 277.97 260.51 320.76 274.76
  C 323.70 275.74 324.38 279.42 322.56 281.50
  Q 321.50 282.73 318.49 283.69
  Q 299.50 289.75 280.42 295.86
  Q 279.94 296.01 279.79 296.48
  Z"
/>
<path fill="#00adb5" d="
  M 195.28 331.02
  Q 176.81 340.50 158.44 350.15
  C 156.92 350.95 155.32 351.28 153.72 350.46
  C 150.47 348.77 151.53 345.39 152.88 342.69
  Q 172.70 303.11 192.39 263.68
  A 4.33 4.32 -4.8 0 1 193.71 262.12
  C 197.24 259.52 199.64 261.97 201.26 265.21
  Q 221.27 305.23 241.22 345.29
  Q 241.80 346.45 240.72 348.54
  C 238.88 352.11 236.30 351.08 233.26 349.54
  Q 214.78 340.18 196.20 331.02
  Q 195.74 330.79 195.28 331.02
  Z"
/>
</svg>
